<?xml version="1.0"?>
<svg xmlns="http://www.w3.org/2000/svg" xmlns:xlink="http://www.w3.org/1999/xlink" version="1.1" id="Capa_1" x="0px" y="0px" viewBox="0 0 512.001 512.001" style="enable-background:new 0 0 512.001 512.001;" xml:space="preserve" width="512px" height="512px"><g><g>
	<g>
		<path d="M492.043,0.858c-0.106,0.037-0.213,0.067-0.318,0.107L11.733,180.962c-11.425,4.285-13.212,19.753-3.053,26.526    l105.239,70.16c0.369,1.543,38.349,160.295,38.6,161.232c2.953,11.077,16.888,14.926,25.085,6.729l75.303-75.303l115.767,77.178    c8.476,5.65,19.962,1.376,22.743-8.36c0.984-3.445,119.938-419.748,120.13-420.524C514.422,6.92,503.15-3.031,492.043,0.858z     M49.686,198.769L386.883,72.32L127.147,250.41L49.686,198.769z M187.008,308.345c-0.044,0.066-0.077,0.135-0.12,0.201    c-0.146,0.231-0.286,0.465-0.419,0.703c-0.839,1.469-1.418,3.024-1.719,4.612l-16.745,60.9l-23.845-99.642l232.323-159.295    c-199.747,202.51-188.227,190.628-189.446,192.482C187.029,308.319,187.017,308.331,187.008,308.345z M196.498,384.288    l11.988-43.597l18.966,12.644L196.498,384.288z M368.217,411.122c-1.406-0.937-142.465-94.976-145.312-96.874L466.439,67.345    L368.217,411.122z" data-original="#000000" class="active-path" data-old_color="#000000" fill="#FFFFFF"/>
	</g>
</g><g>
	<g>
		<path d="M100.605,411.396c-5.857-5.858-15.355-5.858-21.213,0L4.393,486.394c-5.858,5.858-5.858,15.355,0,21.213    c5.857,5.858,15.356,5.858,21.213,0l74.999-74.999C106.463,426.75,106.463,417.253,100.605,411.396z" data-original="#000000" class="active-path" data-old_color="#000000" fill="#FFFFFF"/>
	</g>
</g><g>
	<g>
		<path d="M100.605,321.397c-5.857-5.858-15.355-5.858-21.213,0L4.393,396.396c-5.858,5.858-5.858,15.355,0,21.213    c5.857,5.858,15.356,5.858,21.213,0l74.999-74.999C106.463,336.752,106.463,327.255,100.605,321.397z" data-original="#000000" class="active-path" data-old_color="#000000" fill="#FFFFFF"/>
	</g>
</g></g> </svg>
